<?xml version="1.0" encoding="UTF-8"?>
<svg xmlns="http://www.w3.org/2000/svg" version="1.1" viewBox="0 0 265 63">
  <defs>
    <style>
      .cls-1 {
        fill: #22b8cf;
      }

      .cls-2 {
        fill: #db7093;
      }
    </style>
  </defs>
  <!-- Generator: Adobe Illustrator 28.7.1, SVG Export Plug-In . SVG Version: 1.2.0 Build 142)  -->
  <g>
    <g id="Layer_8">
      <g>
        <path class="cls-1" d="M45.12,49.08c0-7.32,5.31-11.69,13.3-11.69s13.25,4.37,13.25,11.69-5.27,11.69-13.25,11.69-13.3-4.37-13.3-11.69ZM62.61,52.87v-7.67c0-2.81-1.65-4.11-4.2-4.11s-4.24,1.29-4.24,4.11v7.72c0,2.86,1.7,4.15,4.24,4.15s4.2-1.34,4.2-4.2Z"/>
        <path class="cls-1" d="M96.57,37.93l-9.59,22.31h-5.31l-9.68-22.31h9.5l5.58,12.94,5.4-12.94h4.1Z"/>
        <path class="cls-1" d="M99.12,31.9c0-2.41,1.87-4.02,4.78-4.02s4.91,1.61,4.91,4.02-1.92,3.97-4.91,3.97-4.78-1.56-4.78-3.97ZM99.61,37.93h8.66v22.31h-8.66v-22.31Z"/>
        <path class="cls-1" d="M121.34,50.51v2.1c0,3.3,2.1,4.46,5.8,4.46,2.77,0,5.58-.85,7.23-2.5h.53l2.37,2.54c-2.9,2.41-6.02,3.66-10.98,3.66-8.66,0-14.01-4.37-14.01-11.69s5.31-11.69,13.21-11.69c7.32,0,12.27,4.37,12.27,11.69v1.43h-16.42ZM121.34,45.38v1.43h8.25v-1.43c0-3.03-1.56-4.28-4.1-4.28s-4.15,1.25-4.15,4.28Z"/>
        <path class="cls-2" d="M171.68,51.76c0,6.38-4.91,8.48-13.88,8.48h-15.31v-31.24h14.64c8.12,0,12.9,2.01,12.9,8.03,0,3.84-2.23,5.8-5.85,6.74,4.87,1.03,7.5,3.39,7.5,7.99ZM151.73,41.9h5.4c2.32,0,3.57-1.2,3.57-3.39v-2.01c0-2.23-1.29-3.48-3.57-3.48h-5.4v8.88ZM161.82,49.88c0-2.63-1.56-3.97-4.02-3.97h-6.07v10.26h6.07c2.45,0,4.02-1.16,4.02-3.79v-2.5Z"/>
        <path class="cls-2" d="M175.03,49.08c0-7.32,5.31-11.69,13.3-11.69s13.25,4.37,13.25,11.69-5.26,11.69-13.25,11.69-13.3-4.37-13.3-11.69ZM192.53,52.87v-7.67c0-2.81-1.65-4.11-4.19-4.11s-4.24,1.29-4.24,4.11v7.72c0,2.86,1.7,4.15,4.24,4.15s4.19-1.34,4.19-4.2Z"/>
        <path class="cls-2" d="M204.27,49.08c0-7.32,5.31-11.69,13.3-11.69s13.25,4.37,13.25,11.69-5.26,11.69-13.25,11.69-13.3-4.37-13.3-11.69ZM221.76,52.87v-7.67c0-2.81-1.65-4.11-4.19-4.11s-4.24,1.29-4.24,4.11v7.72c0,2.86,1.7,4.15,4.24,4.15s4.19-1.34,4.19-4.2Z"/>
        <path class="cls-2" d="M246.44,51.4l-2.95,2.99v5.84h-8.66v-31.24h8.66v19.81l10.44-10.89h5.76l-7.18,7.32,9.24,14.99h-10.31l-5-8.83Z"/>
        <path class="cls-1" d="M40.42,29v31.24h-9.24v-22.09l-10.53,22.09h-2.68l-10.49-22v22H3.25v-31.24h10.31l8.61,18.25,8.61-18.25h9.64Z"/>
      </g>
    </g>
  </g>
</svg>